<?xml version="1.0" encoding="UTF-8"?>
<svg id="Layer_1" xmlns="http://www.w3.org/2000/svg" xmlns:svg="http://www.w3.org/2000/svg" xmlns:sodipodi="http://sodipodi.sourceforge.net/DTD/sodipodi-0.dtd" xmlns:rdf="http://www.w3.org/1999/02/22-rdf-syntax-ns#" xmlns:inkscape="http://www.inkscape.org/namespaces/inkscape" xmlns:dc="http://purl.org/dc/elements/1.1/" xmlns:cc="http://creativecommons.org/ns#" version="1.1" viewBox="0 0 100 125">
  <!-- Generator: Adobe Illustrator 29.5.1, SVG Export Plug-In . SVG Version: 2.1.0 Build 141)  -->
  <path d="M5.98,22.5c-1.66,0-3,1.34-3,3s1.34,3,3,3h9.56l10.31,48.66c.41,1.83,1.61,3.36,3.12,3.34h50c1.58.02,3.04-1.41,3.04-3s-1.46-3.02-3.04-3H31.42l-1.28-6h52.84c1.34-.01,2.61-1.03,2.91-2.34l7-30c.39-1.74-1.12-3.64-2.91-3.66H22.54l-1.62-7.62c-.28-1.33-1.58-2.38-2.94-2.38H5.98ZM23.79,38.5h62.41l-5.59,24H28.88l-5.09-24ZM38.98,82.5c-5.49,0-10,4.51-10,10s4.51,10,10,10,10-4.51,10-10-4.51-10-10-10ZM68.98,82.5c-5.49,0-10,4.51-10,10s4.51,10,10,10,10-4.51,10-10-4.51-10-10-10ZM38.98,88.5c2.24,0,4,1.76,4,4s-1.76,4-4,4-4-1.76-4-4,1.76-4,4-4ZM68.98,88.5c2.24,0,4,1.76,4,4s-1.76,4-4,4-4-1.76-4-4,1.76-4,4-4Z"/>
</svg>