<?xml version="1.0" encoding="UTF-8"?>
<svg id="Layer_1" xmlns="http://www.w3.org/2000/svg" version="1.1" viewBox="0 0 87.55 58.24">
  <!-- Generator: Adobe Illustrator 29.5.1, SVG Export Plug-In . SVG Version: 2.1.0 Build 141)  -->
  <defs>
    <style>
      .st0 {
        fill: #e02c6d;
      }
    </style>
  </defs>
  <path class="st0" d="M83.87,28.52c0-.32-.32-.64-.64-.64L56.39.72c-.96-.96-2.56-.96-3.51,0s-.96,2.56,0,3.51l23.01,23.01H8.56c-1.28,0-2.56.96-2.56,2.56s.96,2.56,2.56,2.56h67.01l-22.69,22.37c-.96.96-.96,2.56,0,3.51.32.32.96.64,1.6.64s1.28-.32,1.6-.64l26.84-26.84c.32-.32.64-.96.64-1.6.32-.64.32-.96.32-1.28Z"/>
</svg>