<?xml version="1.0" encoding="UTF-8"?>
<svg id="Layer_1" xmlns="http://www.w3.org/2000/svg" version="1.1" viewBox="0 0 100 85.88">
  <!-- Generator: Adobe Illustrator 29.5.1, SVG Export Plug-In . SVG Version: 2.1.0 Build 141)  -->
  <path d="M62,17.17c-9.93-9.91-26.01-9.89-35.92.05-9.91,9.93-9.89,26.01.05,35.92,9.08,9.05,23.47,9.92,33.57,2.03l16.7,16.6c1.33.99,3.21.73,4.2-.6.8-1.07.8-2.53,0-3.6l-16.6-16.7c8.02-10.1,7.16-24.62-2-33.7ZM57.7,48.87c-7.56,7.59-19.84,7.62-27.44.06-.02-.02-.04-.04-.06-.06-3.68-3.61-5.74-8.55-5.7-13.7,0-10.77,8.73-19.5,19.5-19.5s19.5,8.73,19.5,19.5c0,5.16-2.09,10.1-5.8,13.7Z"/>
</svg>